<svg width="40" height="40" viewBox="0 0 40 40" fill="none" xmlns="http://www.w3.org/2000/svg">
<path d="M28.3334 34.9999C28.7754 34.9999 29.1994 34.8243 29.5119 34.5118C29.8245 34.1992 30.0001 33.7753 30.0001 33.3333V24.4166C30.0001 23.6549 30.5267 23.0099 31.2117 22.6816C32.63 22.005 33.7637 20.8492 34.4128 19.4181C35.0618 17.987 35.1845 16.3726 34.7591 14.8599C34.3337 13.3471 33.3877 12.0333 32.0879 11.1502C30.7881 10.2671 29.2181 9.8715 27.6551 10.0333C27.0114 8.53694 25.9432 7.26209 24.5827 6.36632C23.2222 5.47056 21.629 4.99316 20.0001 4.99316C18.3712 4.99316 16.778 5.47056 15.4175 6.36632C14.057 7.26209 12.9888 8.53694 12.3451 10.0333C10.7827 9.87263 9.21381 10.2688 7.91497 11.1518C6.61613 12.0349 5.67076 13.3482 5.24555 14.8601C4.82034 16.372 4.94259 17.9856 5.59075 19.4162C6.23891 20.8468 7.37135 22.0026 8.78841 22.6799C9.47341 23.0099 10.0001 23.6549 10.0001 24.4149V33.3333C10.0001 33.7753 10.1757 34.1992 10.4882 34.5118C10.8008 34.8243 11.2247 34.9999 11.6667 34.9999H28.3334Z" stroke="#1FA9E4" stroke-width="3.33333" stroke-linecap="round" stroke-linejoin="round"/>
<path d="M10 28.3335H30" stroke="#1FA9E4" stroke-width="3.33333" stroke-linecap="round" stroke-linejoin="round"/>
</svg>
